<svg width="20" height="20" viewBox="0 0 20 20" fill="none" xmlns="http://www.w3.org/2000/svg">
<path fill-rule="evenodd" clip-rule="evenodd" d="M8.717 1.04169H11.2827C12.6188 1.04168 13.6663 1.04168 14.5031 1.12125C15.356 1.20235 16.0544 1.3705 16.6702 1.74779C17.3149 2.14289 17.857 2.68497 18.2521 3.32971C18.6293 3.9454 18.7975 4.64382 18.8786 5.49678C18.9582 6.3336 18.9582 7.38106 18.9582 8.71719V9.60652C18.9582 10.5576 18.9582 11.3034 18.9171 11.9057C18.8753 12.5186 18.7888 13.0287 18.5934 13.5004C18.1071 14.6744 17.1743 15.6073 16.0002 16.0936C15.3294 16.3714 14.5653 16.4331 13.5193 16.4511C13.1533 16.4574 12.9216 16.4621 12.7449 16.4816C12.5798 16.4999 12.5158 16.5267 12.4783 16.5485C12.4388 16.5714 12.385 16.6134 12.2916 16.7415C12.1904 16.8804 12.0762 17.0721 11.895 17.3783L11.4433 18.1414C10.7986 19.2306 9.20109 19.2306 8.55642 18.1414L8.10466 17.3783C7.92346 17.0721 7.80919 16.8804 7.70805 16.7415C7.6146 16.6134 7.56078 16.5714 7.52127 16.5485C7.48382 16.5267 7.41983 16.4999 7.25474 16.4816C7.07806 16.4621 6.8463 16.4574 6.48039 16.4511C5.43432 16.4331 4.67029 16.3714 3.99948 16.0936C2.82539 15.6073 1.89257 14.6744 1.40625 13.5004C1.21086 13.0287 1.12442 12.5186 1.0826 11.9057C1.0415 11.3034 1.0415 10.5576 1.0415 9.60652V8.71719C1.0415 7.38107 1.0415 6.3336 1.12106 5.49678C1.20216 4.64382 1.37031 3.9454 1.7476 3.32971C2.1427 2.68497 2.68479 2.14289 3.32953 1.74779C3.94521 1.3705 4.64364 1.20235 5.4966 1.12125C6.33341 1.04168 7.38089 1.04168 8.717 1.04169ZM5.61491 2.36563C4.85345 2.43803 4.36893 2.57688 3.98265 2.81359C3.5061 3.10562 3.10544 3.50629 2.8134 3.98284C2.5767 4.36911 2.43785 4.85364 2.36545 5.6151C2.29216 6.38585 2.2915 7.37399 2.2915 8.75002V9.58335C2.2915 10.5626 2.29185 11.2658 2.3297 11.8206C2.36718 12.3699 2.43931 12.728 2.5611 13.022C2.92055 13.8899 3.61003 14.5793 4.47784 14.9388C4.90753 15.1168 5.45572 15.1833 6.50192 15.2014L6.52844 15.2018C6.8601 15.2075 7.15075 15.2124 7.39231 15.2392C7.65189 15.2679 7.90575 15.326 8.14972 15.4679C8.39167 15.6087 8.56609 15.7966 8.71825 16.0053C8.85875 16.1982 9.00317 16.4422 9.16684 16.7186L9.63209 17.5048C9.79275 17.7761 10.2069 17.7761 10.3675 17.5048L10.8328 16.7186C10.9964 16.4422 11.1408 16.1982 11.2814 16.0053C11.4335 15.7966 11.608 15.6087 11.8499 15.4679C12.0939 15.326 12.3478 15.2679 12.6073 15.2392C12.8489 15.2124 13.1395 15.2075 13.4712 15.2018L13.4978 15.2014C14.5439 15.1833 15.0922 15.1168 15.5218 14.9388C16.3897 14.5793 17.0791 13.8899 17.4386 13.022C17.5603 12.728 17.6325 12.3699 17.67 11.8206C17.7078 11.2658 17.7082 10.5626 17.7082 9.58335V8.75002C17.7082 7.37399 17.7075 6.38585 17.6343 5.6151C17.5618 4.85364 17.423 4.36911 17.1863 3.98284C16.8943 3.50629 16.4936 3.10562 16.017 2.81359C15.6308 2.57688 15.1463 2.43803 14.3848 2.36563C13.614 2.29235 12.6258 2.29169 11.2498 2.29169H8.74984C7.3738 2.29169 6.38567 2.29235 5.61491 2.36563Z" fill="#3B60D1"/>
<path d="M7.49967 9.16671C7.49967 9.62696 7.12657 10 6.66634 10C6.20611 10 5.83301 9.62696 5.83301 9.16671C5.83301 8.70646 6.20611 8.33337 6.66634 8.33337C7.12657 8.33337 7.49967 8.70646 7.49967 9.16671Z" fill="#3B60D1"/>
<path d="M10.8332 9.16671C10.8332 9.62696 10.4601 10 9.99984 10C9.53959 10 9.1665 9.62696 9.1665 9.16671C9.1665 8.70646 9.53959 8.33337 9.99984 8.33337C10.4601 8.33337 10.8332 8.70646 10.8332 9.16671Z" fill="#3B60D1"/>
<path d="M14.1667 9.16671C14.1667 9.62696 13.7936 10 13.3333 10C12.8731 10 12.5 9.62696 12.5 9.16671C12.5 8.70646 12.8731 8.33337 13.3333 8.33337C13.7936 8.33337 14.1667 8.70646 14.1667 9.16671Z" fill="#3B60D1"/>
</svg>
