<svg width="15" height="15" viewBox="0 0 15 15" fill="none" xmlns="http://www.w3.org/2000/svg">
<path fill-rule="evenodd" clip-rule="evenodd" d="M8.97546 0.79611C10.037 -0.26537 11.758 -0.26537 12.8194 0.79611C13.8809 1.85759 13.8809 3.5786 12.8194 4.64007L7.5213 9.93823C7.22269 10.2368 7.04032 10.4192 6.83709 10.5778C6.59764 10.7646 6.33853 10.9247 6.06439 11.0553C5.8317 11.1662 5.58702 11.2478 5.18637 11.3813L3.32173 12.0029L2.87406 12.1521C2.47335 12.2856 2.03157 12.1813 1.7329 11.8827C1.43422 11.584 1.32994 11.1422 1.46351 10.7415L2.23427 8.42916C2.3678 8.02856 2.44934 7.78388 2.56024 7.55121C2.69089 7.27702 2.85102 7.01791 3.0378 6.77847C3.19633 6.57523 3.37871 6.39286 3.67735 6.09425L8.97546 0.79611ZM3.29759 10.9078L2.7078 10.318L3.216 8.79335C3.36396 8.34949 3.42508 8.169 3.50495 8.00142C3.6029 7.79588 3.72295 7.60165 3.86298 7.42207C3.97716 7.2757 4.11126 7.14035 4.44212 6.80944L8.55211 2.69949C8.72171 3.12507 9.00881 3.63871 9.49285 4.12275C9.97683 4.60679 10.4905 4.89382 10.916 5.06347L6.80611 9.17344C6.4752 9.50428 6.33985 9.63837 6.19348 9.75258C6.01394 9.8926 5.81969 10.0127 5.61416 10.1106C5.44657 10.1905 5.26609 10.2516 4.82219 10.3995L3.29759 10.9078ZM11.75 4.22959C11.6635 4.21062 11.5555 4.18208 11.4327 4.13948C11.0951 4.02232 10.6509 3.80078 10.2328 3.38275C9.81476 2.96473 9.59325 2.52053 9.47611 2.18284C9.43348 2.06002 9.40495 1.952 9.38597 1.86561L9.71548 1.5361C10.3683 0.883312 11.4267 0.883312 12.0795 1.5361C12.7322 2.1889 12.7322 3.24728 12.0795 3.90008L11.75 4.22959ZM1.40626 14.4767C1.40626 14.1878 1.64053 13.9535 1.92952 13.9535H13.0923V15H1.92952C1.64053 15 1.40626 14.7657 1.40626 14.4767Z" fill="#0D111B"/>
</svg>
