<svg width="15" height="15" viewBox="0 0 15 15" fill="none" xmlns="http://www.w3.org/2000/svg">
<path fill-rule="evenodd" clip-rule="evenodd" d="M2.5835 9.66281e-07C2.59439 9.66281e-07 2.60532 9.66281e-07 2.61629 9.66281e-07H12.4165C12.8818 -2.01877e-05 13.2796 -4.13304e-05 13.5975 0.0404897C13.9347 0.0834816 14.2606 0.180014 14.5282 0.433827C14.8007 0.692117 14.9089 1.01438 14.9564 1.34966C15.0001 1.65765 15.0001 2.04063 15 2.47754V3.0251C15 3.36957 15 3.66736 14.9746 3.91568C14.9472 4.18289 14.8873 4.43359 14.7436 4.67427C14.601 4.91315 14.4089 5.08654 14.1875 5.24198C13.9789 5.38841 13.7124 5.54001 13.399 5.71834L11.3462 6.88625C10.8789 7.15216 10.7162 7.24792 10.6076 7.34318C10.3581 7.56212 10.2152 7.80497 10.1481 8.1093C10.1194 8.2394 10.1163 8.4032 10.1163 8.90082V10.8273C10.1163 11.4628 10.1163 12.0023 10.0517 12.4171C9.98281 12.8582 9.82311 13.2811 9.40451 13.5457C8.99539 13.8044 8.54476 13.7806 8.10683 13.6755C7.68509 13.5743 7.16532 13.3689 6.54167 13.1224L6.48104 13.0985C6.18893 12.9831 5.9331 12.8821 5.73059 12.7764C5.51295 12.6628 5.31084 12.5215 5.1562 12.3015C4.99982 12.0791 4.93713 11.8406 4.90917 11.5968C4.88368 11.3745 4.8837 11.1077 4.88372 10.8101V8.90082C4.88372 8.4032 4.88062 8.2394 4.85192 8.1093C4.78479 7.80497 4.64192 7.56212 4.39245 7.34318C4.28382 7.24792 4.12111 7.15216 3.65382 6.88625L1.60096 5.71834C1.28755 5.54001 1.02107 5.38841 0.812499 5.24198C0.591099 5.08654 0.399008 4.91315 0.256376 4.67427C0.112662 4.43359 0.0528224 4.18289 0.0254317 3.91568C-2.64634e-05 3.66735 -1.25299e-05 3.36957 1.42362e-06 3.0251L8.40983e-06 2.51356C8.40983e-06 2.50151 1.42362e-06 2.4895 1.42362e-06 2.47753C-2.64833e-05 2.04063 -6.13581e-05 1.65765 0.043613 1.34966C0.0911456 1.01438 0.199369 0.692117 0.471755 0.433827C0.739417 0.180014 1.06532 0.0834816 1.40249 0.0404897C1.72041 -4.13304e-05 2.11819 -2.01877e-05 2.5835 9.66281e-07ZM1.53346 1.08987C1.30068 1.11955 1.22665 1.16834 1.1878 1.20519C1.15367 1.23754 1.10863 1.29452 1.07954 1.4997C1.04778 1.72373 1.04652 2.02985 1.04652 2.51356V2.99997C1.04652 3.37666 1.04716 3.61929 1.06637 3.80669C1.08426 3.98121 1.11498 4.06514 1.15238 4.12778C1.19086 4.19224 1.25477 4.26464 1.40954 4.3733C1.5726 4.48777 1.79537 4.61515 2.13484 4.80829L4.16718 5.96457C4.18621 5.97543 4.20495 5.98608 4.22342 5.99659C4.61321 6.21821 4.87868 6.36918 5.07851 6.54448C5.49109 6.90649 5.75579 7.34621 5.87335 7.87915C5.93048 8.13814 5.93038 8.42852 5.93024 8.83848C5.93024 8.85893 5.93023 8.87973 5.93023 8.90082V10.7832C5.93023 11.1161 5.93105 11.3209 5.94873 11.475C5.96471 11.6144 5.9899 11.6613 6.00928 11.6889C6.03041 11.7189 6.07226 11.7643 6.2107 11.8366C6.35888 11.9139 6.56309 11.9953 6.88549 12.1226C7.55595 12.3876 8.00693 12.5644 8.34865 12.6464C8.68256 12.7266 8.79258 12.6851 8.84951 12.649C8.89695 12.6191 8.97021 12.5582 9.01793 12.2524C9.06823 11.9299 9.06976 11.4749 9.06976 10.7832V8.90082C9.06976 8.87973 9.06976 8.85893 9.06976 8.83848C9.06962 8.42852 9.06949 8.13814 9.12663 7.87915C9.24418 7.34621 9.50888 6.90649 9.92148 6.54448C10.1213 6.36918 10.3868 6.21821 10.7766 5.99659C10.795 5.98608 10.8138 5.97543 10.8329 5.96457L12.8652 4.80829C13.2047 4.61515 13.4274 4.48777 13.5905 4.3733C13.7452 4.26464 13.8091 4.19224 13.8476 4.12778C13.885 4.06514 13.9157 3.98121 13.9336 3.80669C13.9529 3.61929 13.9535 3.37666 13.9535 2.99997V2.51356C13.9535 2.02985 13.9522 1.72373 13.9205 1.4997C13.8914 1.29452 13.8463 1.23754 13.8122 1.20519C13.7733 1.16834 13.6993 1.11955 13.4666 1.08987C13.222 1.05869 12.8909 1.0577 12.3837 1.0577H2.61629C2.10905 1.0577 1.77805 1.05869 1.53346 1.08987Z" fill="#0D111B"/>
</svg>
