<svg width="15" height="15" viewBox="0 0 15 15" fill="none" xmlns="http://www.w3.org/2000/svg">
<g clip-path="url(#clip0_107_236)">
<path fill-rule="evenodd" clip-rule="evenodd" d="M7.15117 1.04651C3.77966 1.04651 1.04651 3.77966 1.04651 7.15117C1.04651 10.5227 3.77966 13.2558 7.15117 13.2558C10.5227 13.2558 13.2558 10.5227 13.2558 7.15117C13.2558 3.77966 10.5227 1.04651 7.15117 1.04651ZM0 7.15117C0 3.20169 3.20169 0 7.15117 0C11.1006 0 14.3023 3.20169 14.3023 7.15117C14.3023 8.93757 13.6473 10.571 12.5644 11.8243L14.8467 14.1068C15.0511 14.3111 15.0511 14.6424 14.8467 14.8467C14.6424 15.0511 14.3111 15.0511 14.1068 14.8467L11.8243 12.5644C10.571 13.6473 8.93757 14.3023 7.15117 14.3023C3.20169 14.3023 0 11.1006 0 7.15117Z" fill="#0D111B"/>
</g>
<defs>
<clipPath id="clip0_107_236">
<rect width="15" height="15" fill="white"/>
</clipPath>
</defs>
</svg>
