<svg width="20" height="20" viewBox="0 0 20 20" fill="none" xmlns="http://www.w3.org/2000/svg">
<path fill-rule="evenodd" clip-rule="evenodd" d="M0 0.769231C0 0.3444 0.312363 0 0.697674 0H19.3023C19.6876 0 20 0.3444 20 0.769231C20 1.19406 19.6876 1.53846 19.3023 1.53846H0.697674C0.312363 1.53846 0 1.19406 0 0.769231ZM5.78397 4.10256H5.84394C6.25303 4.10254 6.60592 4.10253 6.89549 4.13147C7.2017 4.16207 7.50492 4.22982 7.7907 4.41173C8.10887 4.61428 8.37312 4.9056 8.55684 5.25641C8.72177 5.5715 8.78326 5.90582 8.81098 6.24344C8.83721 6.56272 8.83721 6.9518 8.83721 7.40286V16.6997C8.83721 17.1508 8.83721 17.5399 8.81098 17.8591C8.78326 18.1967 8.72177 18.5311 8.55684 18.8462C8.37312 19.1969 8.10887 19.4883 7.7907 19.6909C7.50492 19.8727 7.2017 19.9405 6.89549 19.9711C6.60592 20 6.25305 20 5.84395 20H5.78395C5.37486 20 5.02199 20 4.73242 19.9711C4.4262 19.9405 4.12299 19.8727 3.83721 19.6909C3.51903 19.4883 3.25481 19.1969 3.07111 18.8462C2.90611 18.5311 2.84467 18.1967 2.81691 17.8591C2.79067 17.5399 2.79068 17.1508 2.7907 16.6997V7.40284C2.79068 6.95178 2.79067 6.56271 2.81691 6.24344C2.84467 5.90582 2.90611 5.5715 3.07111 5.25641C3.25481 4.9056 3.51903 4.61428 3.83721 4.41173C4.12299 4.22982 4.4262 4.16207 4.73242 4.13147C5.02199 4.10253 5.37487 4.10254 5.78397 4.10256ZM4.85836 5.66365C4.64893 5.68457 4.57289 5.71989 4.53488 5.74408C4.42883 5.8116 4.34075 5.90871 4.27952 6.02564C4.25757 6.06755 4.22554 6.15139 4.20657 6.3823C4.18672 6.6238 4.18605 6.94245 4.18605 7.4359V16.6667C4.18605 17.1601 4.18672 17.4788 4.20657 17.7203C4.22554 17.9512 4.25757 18.035 4.27952 18.0769C4.34075 18.1938 4.42882 18.291 4.53488 18.3585C4.57289 18.3827 4.64893 18.4179 4.85836 18.4389C5.0774 18.4608 5.36641 18.4615 5.81395 18.4615C6.2615 18.4615 6.55051 18.4608 6.76954 18.4389C6.97898 18.4179 7.05501 18.3827 7.09302 18.3585C7.19908 18.291 7.28715 18.1938 7.34839 18.0769C7.37034 18.035 7.40235 17.9512 7.42134 17.7203C7.44119 17.4788 7.44186 17.1601 7.44186 16.6667V7.4359C7.44186 6.94245 7.44119 6.6238 7.42134 6.38231C7.40236 6.15138 7.37034 6.06755 7.34839 6.02564C7.28715 5.90871 7.19908 5.8116 7.09302 5.74408C7.05501 5.71989 6.97898 5.68457 6.76954 5.66365C6.55051 5.64176 6.2615 5.64103 5.81395 5.64103C5.36641 5.64103 5.0774 5.64176 4.85836 5.66365ZM14.1561 4.10256H14.216C14.6251 4.10254 14.978 4.10253 15.2676 4.13147C15.5738 4.16207 15.877 4.22982 16.1628 4.41173C16.4809 4.61428 16.7452 4.9056 16.9289 5.25641C17.0939 5.5715 17.1553 5.90582 17.1831 6.24344C17.2093 6.56271 17.2093 6.95176 17.2093 7.40282V13.6228C17.2093 14.0738 17.2093 14.463 17.1831 14.7823C17.1553 15.1198 17.0939 15.4542 16.9289 15.7692C16.7452 16.12 16.4809 16.4114 16.1628 16.614C15.877 16.7958 15.5738 16.8636 15.2676 16.8942C14.978 16.9231 14.6251 16.9231 14.216 16.9231H14.1561C13.747 16.9231 13.394 16.9231 13.1045 16.8942C12.7983 16.8636 12.4951 16.7958 12.2093 16.614C11.8912 16.4114 11.6269 16.12 11.4432 15.7692C11.2782 15.4542 11.2167 15.1198 11.189 14.7822C11.1628 14.463 11.1628 14.0738 11.1628 13.6228V7.40286C11.1628 6.9518 11.1628 6.56272 11.189 6.24344C11.2167 5.90582 11.2782 5.5715 11.4432 5.25641C11.6269 4.9056 11.8912 4.61428 12.2093 4.41173C12.4951 4.22982 12.7983 4.16207 13.1045 4.13147C13.394 4.10253 13.747 4.10254 14.1561 4.10256ZM13.2304 5.66365C13.021 5.68457 12.945 5.71989 12.907 5.74408C12.8009 5.8116 12.7128 5.9087 12.6516 6.02564C12.6297 6.06755 12.5977 6.15138 12.5787 6.38231C12.5588 6.6238 12.5581 6.94245 12.5581 7.4359V13.5897C12.5581 14.0832 12.5588 14.4018 12.5787 14.6434C12.5977 14.8743 12.6297 14.9581 12.6516 15C12.7128 15.1169 12.8009 15.2141 12.907 15.2815C12.945 15.3057 13.021 15.341 13.2304 15.3619C13.4495 15.3839 13.7385 15.3846 14.186 15.3846C14.6336 15.3846 14.9226 15.3839 15.1417 15.3619C15.3511 15.341 15.4271 15.3057 15.4651 15.2815C15.5712 15.2141 15.6593 15.1169 15.7205 15C15.7424 14.9581 15.7744 14.8743 15.7934 14.6434C15.8133 14.4018 15.814 14.0832 15.814 13.5897V7.4359C15.814 6.94245 15.8133 6.6238 15.7934 6.38231C15.7744 6.15138 15.7424 6.06755 15.7205 6.02564C15.6593 5.90871 15.5712 5.8116 15.4651 5.74408C15.4271 5.71989 15.3511 5.68457 15.1417 5.66365C14.9226 5.64176 14.6336 5.64103 14.186 5.64103C13.7385 5.64103 13.4495 5.64176 13.2304 5.66365Z" fill="#3B60D1"/>
</svg>
