<svg width="20" height="20" viewBox="0 0 20 20" fill="none" xmlns="http://www.w3.org/2000/svg">
<path fill-rule="evenodd" clip-rule="evenodd" d="M5.34884 0C5.73415 0 6.04651 0.3198 6.04651 0.714286V1.44069C6.66235 1.42856 7.34084 1.42856 8.08705 1.42857H11.9129C12.6592 1.42856 13.3377 1.42856 13.9535 1.44069V0.714286C13.9535 0.3198 14.2659 0 14.6512 0C15.0365 0 15.3488 0.3198 15.3488 0.714286V1.50199C15.5906 1.52087 15.8196 1.54459 16.0363 1.57441C17.1269 1.72453 18.0097 2.04084 18.7059 2.75356C19.402 3.4663 19.7109 4.37005 19.8576 5.48665C19.9044 5.8435 19.9358 6.23294 19.9569 6.65721C19.9848 6.73434 20 6.81772 20 6.90476C20 6.97078 19.9913 7.0347 19.9749 7.09539C20 7.85914 20 8.72648 20 9.70819V11.7204C20 13.4707 20 14.857 19.8576 15.9419C19.7109 17.0585 19.402 17.9623 18.7059 18.675C18.0097 19.3877 17.1269 19.704 16.0363 19.8542C14.9766 20 13.6225 20 11.9129 20H8.08706C6.37752 20 5.02343 20 3.9637 19.8542C2.87308 19.704 1.99034 19.3877 1.29418 18.675C0.598028 17.9623 0.289079 17.0585 0.142456 15.9419C-2.75429e-05 14.857 -1.81831e-05 13.4707 4.21583e-07 11.7204V9.70819C-8.88074e-06 8.72638 -1.82175e-05 7.85914 0.025126 7.0954C0.00875388 7.03471 4.21583e-07 6.97078 4.21583e-07 6.90476C4.21583e-07 6.81773 0.0152004 6.73433 0.0430423 6.6572C0.06414 6.23293 0.0955911 5.84349 0.142456 5.48665C0.289079 4.37006 0.598028 3.4663 1.29418 2.75356C1.99034 2.04084 2.87308 1.72453 3.9637 1.57441C4.18037 1.54459 4.40936 1.52087 4.65116 1.50199V0.714286C4.65116 0.3198 4.96353 0 5.34884 0ZM1.40753 7.61905C1.39565 8.24067 1.39535 8.94857 1.39535 9.7619V11.6667C1.39535 13.4827 1.39683 14.7729 1.52536 15.7516C1.65118 16.7097 1.88715 17.2618 2.28084 17.6649C2.67452 18.0679 3.21373 18.3095 4.14963 18.4383C5.10559 18.5699 6.36575 18.5714 8.13953 18.5714H11.8605C13.6342 18.5714 14.8944 18.5699 15.8504 18.4383C16.7862 18.3095 17.3255 18.0679 17.7192 17.6649C18.1128 17.2618 18.3488 16.7097 18.4746 15.7516C18.6032 14.7729 18.6047 13.4827 18.6047 11.6667V9.7619C18.6047 8.94857 18.6044 8.24067 18.5925 7.61905H1.40753ZM18.5287 6.19048H1.47133C1.48623 6.0101 1.50405 5.83927 1.52536 5.677C1.65118 4.71882 1.88715 4.16677 2.28084 3.76371C2.67452 3.36066 3.21373 3.11907 4.14963 2.99025C5.10559 2.85866 6.36575 2.85714 8.13953 2.85714H11.8605C13.6342 2.85714 14.8944 2.85866 15.8504 2.99025C16.7862 3.11907 17.3255 3.36066 17.7192 3.76371C18.1128 4.16677 18.3488 4.71882 18.4746 5.677C18.4959 5.83927 18.5138 6.0101 18.5287 6.19048ZM14.186 13.3333C13.8007 13.3333 13.4884 13.6531 13.4884 14.0476C13.4884 14.4421 13.8007 14.7619 14.186 14.7619C14.5713 14.7619 14.8837 14.4421 14.8837 14.0476C14.8837 13.6531 14.5713 13.3333 14.186 13.3333ZM12.093 14.0476C12.093 12.8642 13.0301 11.9048 14.186 11.9048C15.342 11.9048 16.2791 12.8642 16.2791 14.0476C16.2791 15.231 15.342 16.1905 14.186 16.1905C13.0301 16.1905 12.093 15.231 12.093 14.0476Z" fill="#3B60D1"/>
</svg>
