<svg width="20" height="20" viewBox="0 0 20 20" fill="none" xmlns="http://www.w3.org/2000/svg">
<path fill-rule="evenodd" clip-rule="evenodd" d="M7.5609 0C5.00154 0 2.92676 2.07478 2.92676 4.63415C2.92676 7.19351 5.00154 9.26829 7.5609 9.26829C10.1203 9.26829 12.1951 7.19351 12.1951 4.63415C12.1951 2.07478 10.1203 0 7.5609 0ZM4.39017 4.63415C4.39017 2.883 5.80975 1.46341 7.5609 1.46341C9.31203 1.46341 10.7316 2.883 10.7316 4.63415C10.7316 6.3853 9.31203 7.80488 7.5609 7.80488C5.80975 7.80488 4.39017 6.3853 4.39017 4.63415Z" fill="#3B60D1"/>
<path d="M13.4146 0.975586C13.0105 0.975586 12.6829 1.30319 12.6829 1.70729C12.6829 2.1114 13.0105 2.439 13.4146 2.439C14.6269 2.439 15.6097 3.42179 15.6097 4.63412C15.6097 5.84645 14.6269 6.82924 13.4146 6.82924C13.0105 6.82924 12.6829 7.15684 12.6829 7.56095C12.6829 7.96506 13.0105 8.29266 13.4146 8.29266C15.4352 8.29266 17.0731 6.65468 17.0731 4.63412C17.0731 2.61357 15.4352 0.975586 13.4146 0.975586Z" fill="#3B60D1"/>
<path fill-rule="evenodd" clip-rule="evenodd" d="M2.36893 11.9711C3.73417 11.191 5.57139 10.7317 7.56098 10.7317C9.55054 10.7317 11.3878 11.191 12.7531 11.9711C14.0976 12.7394 15.122 13.9123 15.122 15.3658C15.122 16.8194 14.0976 17.9923 12.7531 18.7606C11.3878 19.5407 9.55054 20 7.56098 20C5.57139 20 3.73417 19.5407 2.36893 18.7606C1.02439 17.9923 0 16.8194 0 15.3658C0 13.9123 1.02439 12.7394 2.36893 11.9711ZM3.09499 13.2417C1.96781 13.8858 1.46341 14.6641 1.46341 15.3658C1.46341 16.0676 1.96781 16.8458 3.09499 17.4899C4.20145 18.1222 5.77887 18.5366 7.56098 18.5366C9.34312 18.5366 10.9205 18.1222 12.0269 17.4899C13.1541 16.8458 13.6585 16.0676 13.6585 15.3658C13.6585 14.6641 13.1541 13.8858 12.0269 13.2417C10.9205 12.6094 9.34312 12.1951 7.56098 12.1951C5.77887 12.1951 4.20145 12.6094 3.09499 13.2417Z" fill="#3B60D1"/>
<path d="M16.4983 11.7243C16.1035 11.6377 15.7133 11.8875 15.6268 12.2822C15.5402 12.677 15.79 13.0672 16.1847 13.1537C16.9578 13.3233 17.5755 13.6144 17.9833 13.9481C18.3916 14.2821 18.5366 14.6085 18.5366 14.878C18.5366 15.1226 18.4189 15.4098 18.0946 15.7111C17.7678 16.0146 17.2659 16.295 16.6184 16.49C16.2313 16.6065 16.0121 17.0146 16.1286 17.4017C16.2452 17.7886 16.6533 18.0078 17.0402 17.8913C17.8428 17.6497 18.5603 17.2759 19.0906 16.7833C19.6231 16.2885 20 15.6377 20 14.878C20 14.0343 19.5374 13.3288 18.9101 12.8155C18.2823 12.3017 17.4366 11.93 16.4983 11.7243Z" fill="#3B60D1"/>
</svg>
