<svg width="19" height="20" viewBox="0 0 19 20" fill="none" xmlns="http://www.w3.org/2000/svg">
<path fill-rule="evenodd" clip-rule="evenodd" d="M9.46811 6.51166C7.54154 6.51166 5.97974 8.07345 5.97974 10C5.97974 11.9266 7.54154 13.4884 9.46811 13.4884C11.3947 13.4884 12.9565 11.9266 12.9565 10C12.9565 8.07345 11.3947 6.51166 9.46811 6.51166ZM7.37509 10C7.37509 8.84412 8.3122 7.90701 9.46811 7.90701C10.624 7.90701 11.5611 8.84412 11.5611 10C11.5611 11.1559 10.624 12.0931 9.46811 12.0931C8.3122 12.0931 7.37509 11.1559 7.37509 10Z" fill="#3B60D1"/>
<path fill-rule="evenodd" clip-rule="evenodd" d="M9.44458 3.95143e-07C9.03119 -8.90718e-06 8.68598 -8.95109e-06 8.40263 0.0193213C8.10765 0.0394515 7.82905 0.0828376 7.55892 0.194726C6.93211 0.454363 6.4341 0.952363 6.17446 1.57918C6.0393 1.90551 6.00269 2.24941 5.98871 2.62322C5.97747 2.92371 5.82583 3.17443 5.60202 3.30364C5.37823 3.43285 5.08528 3.43882 4.81943 3.29831C4.48871 3.12351 4.17257 2.98325 3.82238 2.93714C3.14972 2.84859 2.46944 3.03087 1.93118 3.4439C1.69921 3.62189 1.52232 3.84149 1.35741 4.08688C1.19898 4.32261 1.02641 4.62154 0.819687 4.9796L0.796199 5.02029C0.589464 5.37835 0.416888 5.67725 0.291948 5.93231C0.161892 6.19783 0.0601526 6.46083 0.0219851 6.75071C-0.066573 7.42337 0.115715 8.10365 0.528729 8.64195C0.743725 8.92205 1.02321 9.12577 1.3399 9.32475C1.59458 9.48475 1.73591 9.74149 1.73589 10C1.73588 10.2584 1.59455 10.5152 1.3399 10.6752C1.02318 10.8741 0.74366 11.0779 0.528646 11.358C0.115622 11.8963 -0.0666568 12.5766 0.0218921 13.2492C0.0600595 13.5391 0.161799 13.8021 0.291855 14.0676C0.416794 14.3227 0.589371 14.6216 0.796097 14.9796L0.819595 15.0204C1.02632 15.3784 1.19889 15.6773 1.35732 15.913C1.52223 16.1584 1.69912 16.378 1.93108 16.556C2.46934 16.969 3.14963 17.1514 3.82228 17.0628C4.17246 17.0167 4.48858 16.8765 4.81928 16.7017C5.08517 16.5611 5.37815 16.5671 5.60198 16.6964C5.82581 16.8256 5.97747 17.0763 5.98871 17.3768C6.00269 17.7506 6.03931 18.0945 6.17446 18.4208C6.4341 19.0476 6.93211 19.5457 7.55892 19.8053C7.82905 19.9172 8.10765 19.9606 8.40263 19.9807C8.68598 20 9.03119 20 9.44458 20H9.49156C9.90505 20 10.2502 20 10.5336 19.9807C10.8286 19.9606 11.1072 19.9172 11.3773 19.8053C12.0041 19.5457 12.5022 19.0476 12.7618 18.4208C12.897 18.0945 12.9335 17.7506 12.9475 17.3767C12.9587 17.0763 13.1103 16.8256 13.3342 16.6963C13.558 16.5671 13.851 16.5611 14.1169 16.7016C14.4476 16.8764 14.7637 17.0167 15.1139 17.0627C15.7865 17.1513 16.4668 16.969 17.005 16.556C17.237 16.378 17.4139 16.1584 17.5788 15.913C17.7372 15.6773 17.9098 15.3784 18.1165 15.0204L18.14 14.9796C18.3467 14.6216 18.5194 14.3226 18.6443 14.0675C18.7743 13.802 18.876 13.5391 18.9143 13.2492C19.0028 12.5765 18.8205 11.8962 18.4075 11.358C18.1925 11.0778 17.913 10.8741 17.5963 10.6752C17.3416 10.5152 17.2003 10.2584 17.2003 9.99991C17.2003 9.74149 17.3416 9.48484 17.5962 9.32484C17.913 9.12586 18.1926 8.92223 18.4076 8.64195C18.8206 8.10371 19.0029 7.42343 18.9143 6.75077C18.8761 6.46089 18.7744 6.1979 18.6444 5.93237C18.5195 5.67733 18.3469 5.37845 18.1401 5.02042L18.1167 4.9797C17.9099 4.62163 17.7373 4.32268 17.5789 4.08695C17.414 3.84155 17.2371 3.62195 17.0051 3.44395C16.4669 3.03094 15.7866 2.84865 15.1139 2.93721C14.7637 2.98331 14.4476 3.12355 14.117 3.29834C13.8511 3.43887 13.5581 3.43289 13.3343 3.30367C13.1104 3.17445 12.9587 2.92369 12.9475 2.62317C12.9335 2.24938 12.897 1.90549 12.7618 1.57918C12.5022 0.952363 12.0041 0.454363 11.3773 0.194726C11.1072 0.0828376 10.8286 0.0394515 10.5336 0.0193213C10.2502 -8.95109e-06 9.90505 -8.90718e-06 9.49156 3.95143e-07H9.44458ZM8.09286 1.48386C8.16467 1.45413 8.2737 1.42672 8.4976 1.41143C8.72784 1.39573 9.02514 1.39535 9.46811 1.39535C9.91109 1.39535 10.2084 1.39573 10.4385 1.41143C10.6625 1.42672 10.7716 1.45413 10.8433 1.48386C11.1282 1.60188 11.3546 1.82824 11.4726 2.11316C11.5099 2.20303 11.5407 2.34314 11.5531 2.67532C11.5807 3.41242 11.9611 4.12213 12.6366 4.51207C13.3119 4.90203 14.1169 4.87665 14.769 4.53198C15.0628 4.37665 15.1997 4.33332 15.296 4.32062C15.6018 4.28037 15.911 4.36323 16.1557 4.55096C16.2173 4.59825 16.2956 4.67897 16.4208 4.86527C16.5495 5.05677 16.6984 5.31405 16.9199 5.69768C17.1414 6.08131 17.2898 6.33896 17.3913 6.54617C17.49 6.74774 17.5208 6.85588 17.5309 6.9329C17.5712 7.23865 17.4883 7.54788 17.3006 7.79254C17.2413 7.86972 17.1355 7.9665 16.8539 8.14335C16.2294 8.53581 15.805 9.22009 15.805 9.99991C15.805 10.7798 16.2293 11.4642 16.8539 11.8567C17.1354 12.0335 17.2412 12.1302 17.3005 12.2074C17.4882 12.4521 17.5711 12.7613 17.5308 13.0671C17.5207 13.1441 17.4899 13.2522 17.3912 13.4538C17.2897 13.6609 17.1413 13.9186 16.9198 14.3022C16.6983 14.6859 16.5494 14.9432 16.4207 15.1347C16.2955 15.3209 16.2172 15.4017 16.1556 15.4489C15.9109 15.6367 15.6017 15.7195 15.2959 15.6793C15.1996 15.6666 15.0627 15.6233 14.7689 15.468C14.1168 15.1233 13.3118 15.098 12.6364 15.4879C11.9611 15.8779 11.5807 16.5875 11.5531 17.3247C11.5407 17.6568 11.5099 17.7969 11.4726 17.8869C11.3546 18.1717 11.1282 18.3981 10.8433 18.5162C10.7716 18.5459 10.6625 18.5733 10.4385 18.5886C10.2084 18.6043 9.91109 18.6047 9.46811 18.6047C9.02514 18.6047 8.72784 18.6043 8.4976 18.5886C8.2737 18.5733 8.16467 18.5459 8.09286 18.5162C7.80802 18.3981 7.58161 18.1717 7.46359 17.8869C7.42637 17.7969 7.39551 17.6568 7.38308 17.3247C7.35552 16.5876 6.97506 15.8779 6.29965 15.4879C5.62425 15.098 4.81939 15.1233 4.16726 15.468C3.87337 15.6233 3.73661 15.6667 3.64016 15.6793C3.3344 15.7196 3.02519 15.6367 2.78052 15.449C2.71889 15.4018 2.64063 15.321 2.51543 15.1347C2.38673 14.9433 2.23775 14.686 2.01626 14.3023C1.79477 13.9187 1.64645 13.661 1.54495 13.4539C1.44622 13.2523 1.41545 13.1441 1.40531 13.0671C1.36505 12.7613 1.44791 12.4521 1.63565 12.2074C1.69487 12.1303 1.80078 12.0335 2.08226 11.8567C2.70679 11.4643 3.1312 10.7799 3.13124 10.0001C3.13129 9.22009 2.70686 8.53572 2.08226 8.14326C1.80085 7.96641 1.69495 7.86965 1.63573 7.79247C1.448 7.54781 1.36515 7.2386 1.4054 6.93284C1.41554 6.85582 1.44631 6.74768 1.54505 6.54611C1.64654 6.33889 1.79486 6.08125 2.01635 5.69761C2.23785 5.31398 2.38681 5.05671 2.51552 4.8652C2.64072 4.67891 2.71898 4.59819 2.78061 4.5509C3.02528 4.36316 3.3345 4.28031 3.64025 4.32056C3.7367 4.33326 3.87347 4.37659 4.1674 4.53194C4.81949 4.87661 5.62431 4.90197 6.29969 4.51205C6.97507 4.12212 7.35552 3.41244 7.38308 2.67537C7.39551 2.34315 7.42637 2.20304 7.46359 2.11316C7.58161 1.82824 7.80802 1.60188 8.09286 1.48386Z" fill="#3B60D1"/>
</svg>
