<svg width="19" height="20" viewBox="0 0 19 20" fill="none" xmlns="http://www.w3.org/2000/svg">
<path fill-rule="evenodd" clip-rule="evenodd" d="M4.66288 1.87019C4.77413 0.819014 5.66352 0 6.74419 0H11.3953C12.476 0 13.3654 0.819014 13.4767 1.87019C14.1865 1.88464 14.8003 1.92136 15.3243 2.01763C16.0294 2.14714 16.6295 2.39388 17.1179 2.88219C17.6778 3.44211 17.9186 4.14711 18.0312 4.98442C18.1395 5.7909 18.1395 6.81632 18.1395 8.08849V13.772C18.1395 15.0442 18.1395 16.0696 18.0312 16.8761C17.9186 17.7134 17.6778 18.4183 17.1179 18.9783C16.5579 19.5382 15.8529 19.7791 15.0156 19.8916C14.2091 20 13.1837 20 11.9115 20H6.22803C4.95585 20 3.93044 20 3.12395 19.8916C2.28664 19.7791 1.58165 19.5382 1.02172 18.9783C0.461796 18.4183 0.220968 17.7134 0.108391 16.8761C-3.67885e-05 16.0696 -1.81173e-05 15.0442 4.87398e-07 13.772V8.08849C-1.81173e-05 6.81632 -3.67885e-05 5.7909 0.108391 4.98442C0.220968 4.14711 0.461796 3.44211 1.02172 2.88219C1.51003 2.39388 2.11009 2.14714 2.81521 2.01763C3.33928 1.92136 3.95304 1.88464 4.66288 1.87019ZM4.66508 3.26593C3.997 3.28019 3.4822 3.3138 3.0673 3.39001C2.54004 3.48687 2.23485 3.64238 2.00838 3.86885C1.75093 4.1263 1.58307 4.48777 1.4913 5.17034C1.39683 5.873 1.39535 6.80426 1.39535 8.13953V13.7209C1.39535 15.0562 1.39683 15.9874 1.4913 16.6901C1.58307 17.3727 1.75093 17.7341 2.00838 17.9916C2.26583 18.2491 2.6273 18.4169 3.30988 18.5087C4.01253 18.6032 4.9438 18.6047 6.27907 18.6047H11.8605C13.1957 18.6047 14.127 18.6032 14.8297 18.5087C15.5123 18.4169 15.8737 18.2491 16.1312 17.9916C16.3887 17.7341 16.5565 17.3727 16.6483 16.6901C16.7427 15.9874 16.7442 15.0562 16.7442 13.7209V8.13953C16.7442 6.80426 16.7427 5.873 16.6483 5.17034C16.5565 4.48776 16.3887 4.1263 16.1312 3.86885C15.9047 3.64238 15.5995 3.48687 15.0723 3.39001C14.6573 3.3138 14.1425 3.28019 13.4744 3.26593C13.3542 4.30755 12.4692 5.11628 11.3953 5.11628H6.74419C5.67032 5.11628 4.78534 4.30755 4.66508 3.26593ZM6.74419 1.39535C6.35887 1.39535 6.04651 1.70771 6.04651 2.09302V3.02326C6.04651 3.40857 6.35887 3.72093 6.74419 3.72093H11.3953C11.7807 3.72093 12.093 3.40857 12.093 3.02326V2.09302C12.093 1.70771 11.7807 1.39535 11.3953 1.39535H6.74419ZM3.72093 8.60465C3.72093 8.21935 4.03329 7.90698 4.4186 7.90698H13.7209C14.1062 7.90698 14.4186 8.21935 14.4186 8.60465C14.4186 8.98995 14.1062 9.30233 13.7209 9.30233H4.4186C4.03329 9.30233 3.72093 8.98995 3.72093 8.60465ZM4.65116 11.8605C4.65116 11.4752 4.96353 11.1628 5.34884 11.1628H12.7907C13.176 11.1628 13.4884 11.4752 13.4884 11.8605C13.4884 12.2458 13.176 12.5581 12.7907 12.5581H5.34884C4.96353 12.5581 4.65116 12.2458 4.65116 11.8605ZM5.5814 15.1163C5.5814 14.731 5.89376 14.4186 6.27907 14.4186H11.8605C12.2458 14.4186 12.5581 14.731 12.5581 15.1163C12.5581 15.5016 12.2458 15.814 11.8605 15.814H6.27907C5.89376 15.814 5.5814 15.5016 5.5814 15.1163Z" fill="#3B60D1"/>
</svg>
