<svg width="22" height="22" viewBox="0 0 22 22" fill="none" xmlns="http://www.w3.org/2000/svg">
<path fill-rule="evenodd" clip-rule="evenodd" d="M10.5349 2.39535C6.03955 2.39535 2.39535 6.03955 2.39535 10.5349C2.39535 15.0302 6.03955 18.6744 10.5349 18.6744C15.0302 18.6744 18.6744 15.0302 18.6744 10.5349C18.6744 6.03955 15.0302 2.39535 10.5349 2.39535ZM1 10.5349C1 5.26892 5.26892 1 10.5349 1C15.8009 1 20.0698 5.26892 20.0698 10.5349C20.0698 12.9168 19.1964 15.0946 17.7525 16.7658L20.7957 19.809C21.0681 20.0815 21.0681 20.5232 20.7957 20.7957C20.5232 21.0681 20.0815 21.0681 19.809 20.7957L16.7658 17.7525C15.0946 19.1964 12.9168 20.0698 10.5349 20.0698C5.26892 20.0698 1 15.8009 1 10.5349Z" fill="#3B60D1" stroke="#3B60D1" stroke-width="0.48"/>
</svg>
