<svg width="24" height="25" viewBox="0 0 24 25" fill="none" xmlns="http://www.w3.org/2000/svg">
<path fill-rule="evenodd" clip-rule="evenodd" d="M11.7267 0C6.74976 0 2.71512 4.03464 2.71512 9.01163V9.83035C2.71512 10.6407 2.47525 11.433 2.02573 12.1072L0.69014 14.1106C-0.859964 16.4358 0.323419 19.5963 3.01945 20.3315C3.89807 20.5712 4.78411 20.7738 5.67528 20.9397L5.67749 20.9456C6.57166 23.3315 8.96156 25 11.7267 25C14.4918 25 16.8817 23.3315 17.7759 20.9456L17.7781 20.9397C18.6693 20.7738 19.5554 20.5712 20.434 20.3315C23.1301 19.5963 24.3134 16.4358 22.7633 14.1106L21.4277 12.1072C20.9782 11.433 20.7383 10.6407 20.7383 9.83035V9.01163C20.7383 4.03464 16.7037 0 11.7267 0ZM15.6527 21.264C13.0447 21.5756 10.4086 21.5755 7.80053 21.2638C8.62721 22.4517 10.0651 23.2558 11.7267 23.2558C13.3882 23.2558 14.8261 22.4517 15.6527 21.264ZM4.4593 9.01163C4.4593 4.99793 7.71305 1.74419 11.7267 1.74419C15.7404 1.74419 18.9941 4.99793 18.9941 9.01163V9.83035C18.9941 10.9851 19.336 12.114 19.9765 13.0748L21.312 15.0781C22.2018 16.4127 21.5226 18.2267 19.9751 18.6488C14.5748 20.1216 8.87868 20.1216 3.47837 18.6488C1.9309 18.2267 1.25166 16.4127 2.1414 15.0781L3.47698 13.0748C4.1175 12.114 4.4593 10.9851 4.4593 9.83035V9.01163Z" fill="#3B60D1"/>
</svg>
