<svg width="57" height="15" viewBox="0 0 57 15" fill="none" xmlns="http://www.w3.org/2000/svg">
<path d="M4.38281 12H2.56641V4.94531H0.240234V3.43359H6.70898V4.94531H4.38281V12ZM10.5703 5.31445C11.4492 5.31445 12.123 5.50586 12.5918 5.88867C13.0605 6.27148 13.2949 6.85352 13.2949 7.63477V12H12.0469L11.7012 11.1094H11.6543C11.4668 11.3438 11.2754 11.5352 11.0801 11.6836C10.8848 11.832 10.6602 11.9414 10.4062 12.0117C10.1523 12.082 9.84375 12.1172 9.48047 12.1172C9.09375 12.1172 8.74609 12.043 8.4375 11.8945C8.13281 11.7461 7.89258 11.5195 7.7168 11.2148C7.54102 10.9062 7.45312 10.5156 7.45312 10.043C7.45312 9.34766 7.69727 8.83594 8.18555 8.50781C8.67383 8.17578 9.40625 7.99219 10.3828 7.95703L11.5195 7.92188V7.63477C11.5195 7.29102 11.4297 7.03906 11.25 6.87891C11.0703 6.71875 10.8203 6.63867 10.5 6.63867C10.1836 6.63867 9.87305 6.68359 9.56836 6.77344C9.26367 6.86328 8.95898 6.97656 8.6543 7.11328L8.0625 5.90625C8.41016 5.72266 8.79883 5.57812 9.22852 5.47266C9.66211 5.36719 10.1094 5.31445 10.5703 5.31445ZM11.5195 8.96484L10.8281 8.98828C10.25 9.00391 9.84766 9.10742 9.62109 9.29883C9.39844 9.49023 9.28711 9.74219 9.28711 10.0547C9.28711 10.3281 9.36719 10.5234 9.52734 10.6406C9.6875 10.7539 9.89648 10.8105 10.1543 10.8105C10.5371 10.8105 10.8594 10.6973 11.1211 10.4707C11.3867 10.2441 11.5195 9.92188 11.5195 9.50391V8.96484ZM19.7109 10.0547C19.7109 10.5 19.6055 10.877 19.3945 11.1855C19.1875 11.4902 18.877 11.7227 18.4629 11.8828C18.0488 12.0391 17.5332 12.1172 16.916 12.1172C16.459 12.1172 16.0664 12.0879 15.7383 12.0293C15.4141 11.9707 15.0859 11.873 14.7539 11.7363V10.2598C15.1094 10.4199 15.4902 10.5527 15.8965 10.6582C16.3066 10.7598 16.666 10.8105 16.9746 10.8105C17.3223 10.8105 17.5703 10.7598 17.7188 10.6582C17.8711 10.5527 17.9473 10.416 17.9473 10.248C17.9473 10.1387 17.916 10.041 17.8535 9.95508C17.7949 9.86523 17.666 9.76562 17.4668 9.65625C17.2676 9.54297 16.9551 9.39648 16.5293 9.2168C16.1191 9.04492 15.7812 8.87109 15.5156 8.69531C15.2539 8.51953 15.0586 8.3125 14.9297 8.07422C14.8047 7.83203 14.7422 7.52539 14.7422 7.1543C14.7422 6.54883 14.9766 6.09375 15.4453 5.78906C15.918 5.48047 16.5488 5.32617 17.3379 5.32617C17.7441 5.32617 18.1309 5.36719 18.498 5.44922C18.8691 5.53125 19.25 5.66211 19.6406 5.8418L19.1016 7.13086C18.7773 6.99023 18.4707 6.875 18.1816 6.78516C17.8965 6.69531 17.6055 6.65039 17.3086 6.65039C17.0469 6.65039 16.8496 6.68555 16.7168 6.75586C16.584 6.82617 16.5176 6.93359 16.5176 7.07812C16.5176 7.18359 16.5508 7.27734 16.6172 7.35938C16.6875 7.44141 16.8203 7.5332 17.0156 7.63477C17.2148 7.73242 17.5059 7.85938 17.8887 8.01562C18.2598 8.16797 18.582 8.32812 18.8555 8.49609C19.1289 8.66016 19.3398 8.86523 19.4883 9.11133C19.6367 9.35352 19.7109 9.66797 19.7109 10.0547ZM22.8926 2.88281V6.96094C22.8926 7.20703 22.8828 7.45312 22.8633 7.69922C22.8438 7.94531 22.8223 8.19141 22.7988 8.4375H22.8223C22.9434 8.26562 23.0664 8.0957 23.1914 7.92773C23.3203 7.75977 23.457 7.59766 23.6016 7.44141L25.4355 5.44922H27.4512L24.8496 8.29102L27.6094 12H25.5469L23.6602 9.3457L22.8926 9.96094V12H21.1055V2.88281H22.8926Z" fill="black"/>
<rect x="29" width="28" height="15" rx="2" fill="#3B60D1"/>
<path d="M34.041 2.88281V4.74023C34.041 5.06445 34.0293 5.37305 34.0059 5.66602C33.9863 5.95898 33.9707 6.16602 33.959 6.28711H34.0527C34.1934 6.06055 34.3594 5.87695 34.5508 5.73633C34.7461 5.5957 34.9609 5.49219 35.1953 5.42578C35.4297 5.35938 35.6816 5.32617 35.9512 5.32617C36.4238 5.32617 36.8359 5.41016 37.1875 5.57812C37.5391 5.74219 37.8125 6.00195 38.0078 6.35742C38.2031 6.70898 38.3008 7.16602 38.3008 7.72852V12H36.5137V8.17383C36.5137 7.70508 36.4277 7.35156 36.2559 7.11328C36.084 6.875 35.8184 6.75586 35.459 6.75586C35.0996 6.75586 34.8164 6.83984 34.6094 7.00781C34.4023 7.17188 34.2559 7.41602 34.1699 7.74023C34.084 8.06055 34.041 8.45312 34.041 8.91797V12H32.2539V2.88281H34.041ZM46.1523 5.44922V12H44.7812L44.541 11.1621H44.4473C44.3066 11.3848 44.1309 11.5664 43.9199 11.707C43.709 11.8477 43.4766 11.9512 43.2227 12.0176C42.9688 12.084 42.7051 12.1172 42.4316 12.1172C41.9629 12.1172 41.5547 12.0352 41.207 11.8711C40.8594 11.7031 40.5879 11.4434 40.3926 11.0918C40.2012 10.7402 40.1055 10.2832 40.1055 9.7207V5.44922H41.8926V9.27539C41.8926 9.74414 41.9766 10.0977 42.1445 10.3359C42.3125 10.5742 42.5801 10.6934 42.9473 10.6934C43.3105 10.6934 43.5957 10.6113 43.8027 10.4473C44.0098 10.2793 44.1543 10.0352 44.2363 9.71484C44.3223 9.39062 44.3652 8.99609 44.3652 8.53125V5.44922H46.1523ZM49.8145 2.88281V5.00391C49.8145 5.25 49.8066 5.49414 49.791 5.73633C49.7793 5.97852 49.7637 6.16602 49.7441 6.29883H49.8145C49.9863 6.0293 50.2207 5.80078 50.5176 5.61328C50.8145 5.42188 51.1992 5.32617 51.6719 5.32617C52.4062 5.32617 53.002 5.61328 53.459 6.1875C53.916 6.76172 54.1445 7.60352 54.1445 8.71289C54.1445 9.45898 54.0391 10.0859 53.8281 10.5938C53.6172 11.0977 53.3223 11.4785 52.9434 11.7363C52.5645 11.9902 52.125 12.1172 51.625 12.1172C51.1445 12.1172 50.7656 12.0312 50.4883 11.8594C50.2109 11.6875 49.9863 11.4941 49.8145 11.2793H49.6914L49.3926 12H48.0273V2.88281H49.8145ZM51.0977 6.75586C50.7852 6.75586 50.5371 6.82031 50.3535 6.94922C50.1699 7.07812 50.0352 7.27148 49.9492 7.5293C49.8672 7.78711 49.8223 8.11328 49.8145 8.50781V8.70117C49.8145 9.33789 49.9082 9.82617 50.0957 10.166C50.2832 10.502 50.625 10.6699 51.1211 10.6699C51.4883 10.6699 51.7793 10.5 51.9941 10.1602C52.2129 9.82031 52.3223 9.33008 52.3223 8.68945C52.3223 8.04883 52.2129 7.56641 51.9941 7.24219C51.7754 6.91797 51.4766 6.75586 51.0977 6.75586Z" fill="white"/>
</svg>
