<svg width="25" height="25" viewBox="0 0 25 25" fill="none" xmlns="http://www.w3.org/2000/svg">
<path fill-rule="evenodd" clip-rule="evenodd" d="M8.13965 9.01159C8.13965 6.60337 10.0919 4.65112 12.5001 4.65112C14.9084 4.65112 16.8606 6.60337 16.8606 9.01159C16.8606 11.4198 14.9084 13.3721 12.5001 13.3721C10.0919 13.3721 8.13965 11.4198 8.13965 9.01159ZM12.5001 6.39531C11.0552 6.39531 9.88383 7.56666 9.88383 9.01159C9.88383 10.4565 11.0552 11.6279 12.5001 11.6279C13.945 11.6279 15.1164 10.4565 15.1164 9.01159C15.1164 7.56666 13.945 6.39531 12.5001 6.39531Z" fill="#3B60D1"/>
<path fill-rule="evenodd" clip-rule="evenodd" d="M0 12.5C0 5.59644 5.59644 0 12.5 0C19.4036 0 25 5.59644 25 12.5C25 19.4036 19.4036 25 12.5 25C5.59644 25 0 19.4036 0 12.5ZM12.5 1.74419C6.55973 1.74419 1.74419 6.55973 1.74419 12.5C1.74419 15.46 2.93985 18.1407 4.87453 20.0855C5.0843 18.954 5.49644 17.8871 6.32369 17.0292C7.56107 15.7459 9.53972 15.1163 12.5 15.1163C15.4601 15.1163 17.4388 15.7459 18.6762 17.0292C19.5035 17.8871 19.9156 18.9541 20.1253 20.0856C22.0601 18.1408 23.2558 15.46 23.2558 12.5C23.2558 6.55973 18.4402 1.74419 12.5 1.74419ZM18.5392 21.4016C18.4207 19.9924 18.1147 18.9597 17.4207 18.2399C16.6655 17.4567 15.2662 16.8605 12.5 16.8605C9.73371 16.8605 8.33443 17.4567 7.57924 18.2399C6.8852 18.9597 6.5792 19.9923 6.46072 21.4015C8.18237 22.5719 10.2613 23.2558 12.5 23.2558C14.7386 23.2558 16.8176 22.5719 18.5392 21.4016Z" fill="#3B60D1"/>
</svg>
